<svg xmlns="http://www.w3.org/2000/svg" xml:space="preserve" viewBox="0 0 637.1 111.6">
  <path fill="white" d="M67.5 47.5c3.1 0 5.9-.6 8.4-1.9 2.5-1.2 4.4-3 5.9-5.3 1.4-2.3 2.2-5 2.2-8.1 0-3-.7-5.7-2.2-8.1-1.4-2.4-3.4-4.2-5.9-5.5-2.5-1.3-5.3-1.9-8.4-1.9H36.4L27.8 0H70c5.8 0 11.2 1.4 16 4.3 4.9 2.9 8.7 6.8 11.6 11.7 2.8 4.9 4.3 10.2 4.3 16 0 4.8-1 9.3-2.9 13.5-1.9 4.1-4.6 7.7-8 10.6-3.4 2.9-7.3 5-11.7 6.2l25 47.9h-20L52.1 47.5h15.4zM15.7 47.5 0 78.3h19.9l15.8-30.8-15.8-30.8H0zM212 106.7c-5.6-3.2-10-7.5-13.2-13-3.2-5.5-4.8-11.5-4.8-18.1 0-6.6 1.6-12.6 4.8-18.1 3.2-5.5 7.6-9.8 13.2-13 5.6-3.2 11.7-4.8 18.5-4.8 4.9 0 9.5.9 13.8 2.7 4.4 1.8 8.2 4.3 11.4 7.5 3.3 3.2 5.8 7 7.6 11.2l-14.1 6.1c-1.7-3.7-4.2-6.7-7.5-9-3.3-2.2-7.1-3.4-11.3-3.4-3.9 0-7.5.9-10.6 2.7-3.2 1.8-5.6 4.3-7.4 7.5-1.8 3.2-2.7 6.7-2.7 10.5 0 3.9.9 7.4 2.7 10.5 1.8 3.1 4.3 5.6 7.4 7.4 3.2 1.8 6.7 2.7 10.6 2.7 4.3 0 8-1.1 11.4-3.3 3.3-2.2 5.8-5.2 7.4-8.9l14.1 6.1c-1.8 4.3-4.4 8-7.6 11.2-3.3 3.2-7.1 5.7-11.4 7.5-4.4 1.8-9 2.7-13.8 2.7-6.8.1-12.9-1.5-18.5-4.7zM322.9 110.2 293 76.3v33.9h-16.4V0H293v70.4l26-29.3h20.8L310.1 73l34 37.2h-21.2zM349.9 102.7l7.7-11.9c2.7 2.2 6 4 9.7 5.5 3.8 1.5 7.4 2.2 11 2.2 3.5 0 6.4-.7 8.4-2.2 2.1-1.5 3.1-3.5 3.1-6 0-1.7-.5-3.1-1.6-4.2s-2.5-1.9-4.2-2.6c-1.7-.6-4.1-1.4-7.2-2.3l-2.7-.7c-4.4-1.2-8-2.5-10.9-3.8-2.9-1.3-5.4-3.3-7.5-5.9-2-2.6-3-6-3-10.2 0-4.4 1.2-8.2 3.6-11.4 2.4-3.1 5.7-5.5 9.7-7.1 4.1-1.6 8.6-2.4 13.5-2.4 4.4 0 8.7.6 12.9 1.9 4.2 1.2 7.9 3 11.2 5.2l-7.7 10.8c-2.7-1.8-5.7-3.1-8.8-4.1-3.1-1-6.1-1.4-8.8-1.4-3.2 0-5.7.6-7.6 1.8-1.9 1.2-2.8 2.9-2.8 5 0 1.7.6 3 1.9 4.1 1.2 1.1 2.8 1.9 4.7 2.6 1.9.6 4.4 1.4 7.7 2.2l2.4.6c4.4 1.1 8 2.5 11 4s5.4 3.6 7.2 6.3c1.8 2.7 2.7 6.1 2.7 10.3 0 4.7-1.1 8.8-3.4 12.2-2.2 3.4-5.4 5.9-9.5 7.7-4.1 1.8-8.9 2.7-14.4 2.7-10.2 0-19.6-3-28.3-8.9zM449.6 54.7h-13.7v55.5h-16.4V16.3h16.4v24.8h13.7v13.6zM595.5 42.9l-5.6 14c-2.1-1.1-4.2-1.6-6.4-1.6-3.2 0-6 .9-8.6 2.7-2.6 1.8-4.6 4.2-6.1 7.4-1.5 3.1-2.3 6.7-2.3 10.7v34.2h-16.4V41.1h16.4V52c2-3.9 4.5-6.9 7.6-9 3.1-2.2 6.7-3.2 10.8-3.2 3.9 0 7.4 1 10.6 3.1zM637.1 54.7h-13.7v55.5H607V16.3h16.4v24.8h13.7v13.6zM128.6 106.7c-5.6-3.2-10-7.5-13.2-13-3.2-5.5-4.8-11.5-4.8-18 0-6.6 1.6-12.6 4.8-18 3.2-5.5 7.6-9.8 13.2-13 5.6-3.2 11.7-4.8 18.5-4.8 6.7 0 12.8 1.6 18.4 4.8 5.6 3.2 10 7.5 13.2 13 3.2 5.5 4.8 11.5 4.8 18 0 6.6-1.6 12.6-4.8 18-3.2 5.5-7.6 9.8-13.2 13-5.5 3.2-11.7 4.8-18.4 4.8-6.7 0-12.9-1.6-18.5-4.8zm28.8-12.9c3.1-1.8 5.6-4.4 7.4-7.5 1.8-3.2 2.7-6.7 2.7-10.6 0-3.9-.9-7.4-2.7-10.6-1.8-3.2-4.3-5.7-7.5-7.6-3.2-1.8-6.6-2.8-10.3-2.8-3.8 0-7.2.9-10.4 2.8-3.1 1.8-5.6 4.4-7.4 7.5-1.8 3.2-2.7 6.7-2.7 10.7 0 3.9.9 7.5 2.7 10.7 1.8 3.2 4.3 5.7 7.4 7.5 3.1 1.8 6.6 2.7 10.4 2.7 3.8 0 7.3-.9 10.4-2.8zM532.6 41.1v69.1h-15.5l-.4-10c-2.8 3.5-6.2 6.3-10.2 8.3-4 2-8.7 3-14 3-6 0-11.6-1.6-16.8-4.7-5.2-3.2-9.3-7.5-12.4-13-3.1-5.5-4.6-11.6-4.6-18.3 0-6.6 1.5-12.7 4.6-18.2 3.1-5.5 7.2-9.8 12.4-12.9 5.2-3.2 10.8-4.7 16.8-4.7 5.1 0 9.6.9 13.6 2.8 3.9 1.9 7.3 4.5 10.1 7.8v-9.2h16.4zm-26 52.8c3.2-1.9 5.7-4.4 7.6-7.7 1.9-3.2 2.8-6.8 2.8-10.7 0-3.8-.9-7.4-2.8-10.6-1.9-3.2-4.4-5.8-7.6-7.7-3.2-1.9-6.7-2.8-10.5-2.8s-7.3.9-10.5 2.8-5.7 4.4-7.6 7.7c-1.9 3.2-2.8 6.8-2.8 10.6 0 3.9.9 7.4 2.8 10.7 1.9 3.2 4.4 5.8 7.6 7.7 3.2 1.9 6.7 2.8 10.5 2.8s7.3-.9 10.5-2.8z"/>
</svg>
