<?xml version="1.0" encoding="utf-8"?>
<!-- Generator: Adobe Illustrator 25.4.1, SVG Export Plug-In . SVG Version: 6.00 Build 0)  -->
<svg version="1.1" id="Layer_1" xmlns="http://www.w3.org/2000/svg" xmlns:xlink="http://www.w3.org/1999/xlink" x="0px" y="0px"
	 viewBox="0 0 637.1 111.6" style="enable-background:new 0 0 637.1 111.6;" xml:space="preserve">
<g>
	<g>
		<path d="M67.5,47.5c3.1,0,5.9-0.6,8.4-1.9c2.5-1.2,4.4-3,5.9-5.3c1.4-2.3,2.2-5,2.2-8.1c0-3-0.7-5.7-2.2-8.1
			c-1.4-2.4-3.4-4.2-5.9-5.5c-2.5-1.3-5.3-1.9-8.4-1.9H36.4L27.8,0H70C75.8,0,81.2,1.4,86,4.3c4.9,2.9,8.7,6.8,11.6,11.7
			c2.8,4.9,4.3,10.2,4.3,16c0,4.8-1,9.3-2.9,13.5c-1.9,4.1-4.6,7.7-8,10.6c-3.4,2.9-7.3,5-11.7,6.2l25,47.9H84.3L52.1,47.5H67.5z"/>
	</g>
	<g>
		<polygon points="15.7,47.5 0,78.3 19.9,78.3 35.7,47.5 19.9,16.7 0,16.7 		"/>
	</g>
	<g>
		<path d="M212,106.7c-5.6-3.2-10-7.5-13.2-13c-3.2-5.5-4.8-11.5-4.8-18.1c0-6.6,1.6-12.6,4.8-18.1c3.2-5.5,7.6-9.8,13.2-13
			c5.6-3.2,11.7-4.8,18.5-4.8c4.9,0,9.5,0.9,13.8,2.7c4.4,1.8,8.2,4.3,11.4,7.5c3.3,3.2,5.8,7,7.6,11.2l-14.1,6.1
			c-1.7-3.7-4.2-6.7-7.5-9c-3.3-2.2-7.1-3.4-11.3-3.4c-3.9,0-7.5,0.9-10.6,2.7c-3.2,1.8-5.6,4.3-7.4,7.5c-1.8,3.2-2.7,6.7-2.7,10.5
			c0,3.9,0.9,7.4,2.7,10.5c1.8,3.1,4.3,5.6,7.4,7.4c3.2,1.8,6.7,2.7,10.6,2.7c4.3,0,8-1.1,11.4-3.3c3.3-2.2,5.8-5.2,7.4-8.9
			l14.1,6.1c-1.8,4.3-4.4,8-7.6,11.2c-3.3,3.2-7.1,5.7-11.4,7.5c-4.4,1.8-9,2.7-13.8,2.7C223.7,111.5,217.6,109.9,212,106.7z"/>
	</g>
	<g>
		<path d="M322.9,110.2L293,76.3v33.9h-16.4V0H293v70.4l26-29.3h20.8L310.1,73l34,37.2H322.9z"/>
	</g>
	<g>
		<path d="M349.9,102.7l7.7-11.9c2.7,2.2,6,4,9.7,5.5c3.8,1.5,7.4,2.2,11,2.2c3.5,0,6.4-0.7,8.4-2.2c2.1-1.5,3.1-3.5,3.1-6
			c0-1.7-0.5-3.1-1.6-4.2c-1.1-1.1-2.5-1.9-4.2-2.6c-1.7-0.6-4.1-1.4-7.2-2.3l-2.7-0.7c-4.4-1.2-8-2.5-10.9-3.8
			c-2.9-1.3-5.4-3.3-7.5-5.9c-2-2.6-3-6-3-10.2c0-4.4,1.2-8.2,3.6-11.4c2.4-3.1,5.7-5.5,9.7-7.1c4.1-1.6,8.6-2.4,13.5-2.4
			c4.4,0,8.7,0.6,12.9,1.9c4.2,1.2,7.9,3,11.2,5.2l-7.7,10.8c-2.7-1.8-5.7-3.1-8.8-4.1c-3.1-1-6.1-1.4-8.8-1.4
			c-3.2,0-5.7,0.6-7.6,1.8c-1.9,1.2-2.8,2.9-2.8,5c0,1.7,0.6,3,1.9,4.1c1.2,1.1,2.8,1.9,4.7,2.6c1.9,0.6,4.4,1.4,7.7,2.2l2.4,0.6
			c4.4,1.1,8,2.5,11,4c3,1.5,5.4,3.6,7.2,6.3c1.8,2.7,2.7,6.1,2.7,10.3c0,4.7-1.1,8.8-3.4,12.2c-2.2,3.4-5.4,5.9-9.5,7.7
			c-4.1,1.8-8.9,2.7-14.4,2.7C368,111.6,358.6,108.6,349.9,102.7z"/>
	</g>
	<g>
		<path d="M449.6,54.7h-13.7v55.5h-16.4V16.3h16.4v24.8h13.7V54.7z"/>
	</g>
	<g>
		<path d="M595.5,42.9l-5.6,14c-2.1-1.1-4.2-1.6-6.4-1.6c-3.2,0-6,0.9-8.6,2.7c-2.6,1.8-4.6,4.2-6.1,7.4c-1.5,3.1-2.3,6.7-2.3,10.7
			v34.2h-16.4V41.1h16.4V52c2-3.9,4.5-6.9,7.6-9c3.1-2.2,6.7-3.2,10.8-3.2C588.8,39.8,592.3,40.8,595.5,42.9z"/>
	</g>
	<g>
		<path d="M637.1,54.7h-13.7v55.5h-16.4V16.3h16.4v24.8h13.7V54.7z"/>
	</g>
	<g>
		<path d="M128.6,106.7c-5.6-3.2-10-7.5-13.2-13c-3.2-5.5-4.8-11.5-4.8-18c0-6.6,1.6-12.6,4.8-18c3.2-5.5,7.6-9.8,13.2-13
			c5.6-3.2,11.7-4.8,18.5-4.8c6.7,0,12.8,1.6,18.4,4.8c5.6,3.2,10,7.5,13.2,13c3.2,5.5,4.8,11.5,4.8,18c0,6.6-1.6,12.6-4.8,18
			c-3.2,5.5-7.6,9.8-13.2,13c-5.5,3.2-11.7,4.8-18.4,4.8C140.4,111.5,134.2,109.9,128.6,106.7z M157.4,93.8c3.1-1.8,5.6-4.4,7.4-7.5
			c1.8-3.2,2.7-6.7,2.7-10.6c0-3.9-0.9-7.4-2.7-10.6c-1.8-3.2-4.3-5.7-7.5-7.6c-3.2-1.8-6.6-2.8-10.3-2.8c-3.8,0-7.2,0.9-10.4,2.8
			c-3.1,1.8-5.6,4.4-7.4,7.5c-1.8,3.2-2.7,6.7-2.7,10.7c0,3.9,0.9,7.5,2.7,10.7c1.8,3.2,4.3,5.7,7.4,7.5c3.1,1.8,6.6,2.7,10.4,2.7
			C150.8,96.6,154.3,95.7,157.4,93.8z"/>
	</g>
	<path d="M532.6,41.1v69.1h-15.5l-0.4-10c-2.8,3.5-6.2,6.3-10.2,8.3c-4,2-8.7,3-14,3c-6,0-11.6-1.6-16.8-4.7
		c-5.2-3.2-9.3-7.5-12.4-13c-3.1-5.5-4.6-11.6-4.6-18.3c0-6.6,1.5-12.7,4.6-18.2c3.1-5.5,7.2-9.8,12.4-12.9
		c5.2-3.2,10.8-4.7,16.8-4.7c5.1,0,9.6,0.9,13.6,2.8c3.9,1.9,7.3,4.5,10.1,7.8v-9.2H532.6z M506.6,93.9c3.2-1.9,5.7-4.4,7.6-7.7
		c1.9-3.2,2.8-6.8,2.8-10.7c0-3.8-0.9-7.4-2.8-10.6c-1.9-3.2-4.4-5.8-7.6-7.7c-3.2-1.9-6.7-2.8-10.5-2.8c-3.8,0-7.3,0.9-10.5,2.8
		c-3.2,1.9-5.7,4.4-7.6,7.7c-1.9,3.2-2.8,6.8-2.8,10.6c0,3.9,0.9,7.4,2.8,10.7c1.9,3.2,4.4,5.8,7.6,7.7c3.2,1.9,6.7,2.8,10.5,2.8
		C499.9,96.7,503.4,95.8,506.6,93.9z"/>
</g>
</svg>